<mxfile host="app.diagrams.net" modified="2024-06-12T15:53:18.306Z" agent="Mozilla/5.0 (Windows NT 10.0; Win64; x64) AppleWebKit/537.36 (KHTML, like Gecko) Chrome/125.0.0.0 Safari/537.36" version="24.5.3" etag="bRdOLbu_2sI7UF70Y1dW" type="github">
  <diagram name="Page-1" id="ql6m_ZgaA60PkztiTODW">
    <mxGraphModel>
      <root>
        <mxCell id="0" />
        <mxCell id="1" parent="0" />
      </root>
    </mxGraphModel>
  </diagram>
</mxfile>
